<svg id="Layer_1" data-name="Layer 1" xmlns="http://www.w3.org/2000/svg" viewBox="0 0 67.78176 67.78176"><title>expand</title><path d="M75.475,18.32642,18.32643,75.475a4.8166,4.8166,0,0,1-6.8117,0h0a4.81659,4.81659,0,0,1,0-6.81169L68.66329,11.51472a4.81659,4.81659,0,0,1,6.81169,0h0A4.81662,4.81662,0,0,1,75.475,18.32642ZM73.69361,40.97316,72.9114,40.191a4.41234,4.41234,0,0,0-6.24,0L40.191,66.67141a4.41234,4.41234,0,0,0,0,6.24l.78221.78221a4.41234,4.41234,0,0,0,6.24,0L73.69361,47.21314A4.41234,4.41234,0,0,0,73.69361,40.97316Z" transform="translate(-9.60398 -9.60397)" stroke="#000" stroke-miterlimit="10"/></svg>